# 3ds Max Wavefront OBJ Exporter v0.99 - (c)2007 guruware
# File Created: 18.11.2024 00:36:59

mtllib house_interior.mtl

#
# object Plane001
#

v  -71.2132 1.3373 -69.8682
v  -71.2132 1.3373 344.3887
v  -66.0634 1.3373 344.3887
v  -66.0634 1.3373 -69.8682
v  -66.0634 0.0000 344.3887
v  289.7175 0.0000 344.3887
v  289.7175 0.0000 -69.8682
v  -66.0634 0.0000 -69.8682
v  -71.2132 0.0000 -69.8682
v  -71.2132 0.0000 344.3887
# 10 vertices

vn -0.5774 0.5774 -0.5774
vn -0.5774 0.5774 0.5774
vn 0.5774 0.5774 0.5774
vn 0.5774 0.5774 -0.5774
vn 0.0000 1.0000 -0.0000
vn -0.7071 0.0000 -0.7071
vn -0.7071 0.0000 0.7071
# 7 vertex normals

vt 0.9502 0.9039 0.0000
vt 0.0198 0.9039 0.0000
vt 0.0198 0.8923 0.0000
vt 0.9502 0.8923 0.0000
vt 0.0198 0.8195 0.0000
vt 0.0198 0.0204 0.0000
vt 0.9503 0.0204 0.0000
vt 0.9503 0.8195 0.0000
vt 0.9502 0.9069 0.0000
vt 0.0198 0.9069 0.0000
vt 0.0952 0.9796 0.0000
vt 0.0837 0.9796 0.0000
vt 0.0837 0.9766 0.0000
vt 0.0952 0.9766 0.0000
vt 0.0198 0.8893 0.0000
vt 0.9502 0.8893 0.0000
vt 0.0198 0.9766 0.0000
vt 0.0314 0.9766 0.0000
vt 0.0314 0.9796 0.0000
vt 0.0198 0.9796 0.0000
# 20 texture coords

o Plane001
g Plane001
usemtl floor_texture
s 1
f 1/1/1 2/2/2 3/3/3 4/4/4
f 5/5/3 6/6/5 7/7/5 8/8/4
s off
f 9/9/6 10/10/7 2/2/2 1/1/1
f 10/11/7 5/12/3 3/13/3 2/14/2
f 5/15/3 8/16/4 4/4/4 3/3/3
f 8/17/4 9/18/6 1/19/1 4/20/4
# 6 polygons